<svg width="183" height="52" viewBox="0 0 183 52" fill="none" xmlns="http://www.w3.org/2000/svg">
<path d="M70 15H92.8437V18.6694L73.8785 33.9421L73.4841 32.719H92.8437V36.3884H70V32.719L88.9652 17.4463L89.3596 18.6694H70V15Z" fill="white"/>
<path d="M111.786 30.9339H115.927C115.752 32.0578 115.281 33.0606 114.514 33.9421C113.769 34.8237 112.75 35.5179 111.457 36.0248C110.164 36.5317 108.586 36.7851 106.724 36.7851C104.642 36.7851 102.801 36.4545 101.202 35.7934C99.6022 35.1102 98.3532 34.1295 97.4548 32.8512C96.5564 31.573 96.1072 30.0303 96.1072 28.2231C96.1072 26.416 96.5454 24.8733 97.4219 23.595C98.2984 22.2948 99.5146 21.303 101.07 20.6198C102.648 19.9366 104.489 19.595 106.592 19.595C108.74 19.595 110.526 19.9366 111.95 20.6198C113.374 21.303 114.426 22.3388 115.105 23.7273C115.806 25.0937 116.102 26.8457 115.993 28.9835H100.413C100.523 29.8209 100.829 30.5813 101.333 31.2645C101.859 31.9477 102.56 32.4876 103.437 32.8843C104.335 33.281 105.398 33.4793 106.625 33.4793C107.984 33.4793 109.112 33.2479 110.011 32.7851C110.931 32.3003 111.523 31.6832 111.786 30.9339ZM106.395 22.8678C104.817 22.8678 103.535 23.2204 102.549 23.9256C101.563 24.6088 100.928 25.4573 100.643 26.4711H111.753C111.643 25.3691 111.117 24.4986 110.175 23.8595C109.255 23.1983 107.995 22.8678 106.395 22.8678Z" fill="white"/>
<path d="M119.172 19.9587H123.445V36.3884H119.172V19.9587ZM131.038 19.595C132.046 19.595 132.977 19.7273 133.832 19.9917C134.686 20.2562 135.431 20.6639 136.067 21.2149C136.702 21.7658 137.195 22.4711 137.546 23.3306C137.896 24.168 138.072 25.1708 138.072 26.3388V36.3884H133.799V27.0992C133.799 25.7107 133.459 24.697 132.78 24.0579C132.122 23.3967 131.038 23.0661 129.526 23.0661C128.386 23.0661 127.357 23.2865 126.436 23.7273C125.516 24.168 124.771 24.73 124.201 25.4132C123.631 26.0744 123.303 26.7686 123.215 27.4959L123.182 25.8099C123.292 25.0386 123.544 24.2893 123.938 23.562C124.333 22.8347 124.858 22.1736 125.516 21.5785C126.195 20.9614 126.995 20.4766 127.915 20.124C128.836 19.7713 129.876 19.595 131.038 19.595Z" fill="white"/>
<path d="M161.354 29.9091C161.245 31.3416 160.785 32.5758 159.974 33.6116C159.185 34.6474 158.09 35.4408 156.687 35.9917C155.285 36.5207 153.619 36.7851 151.691 36.7851C149.675 36.7851 147.867 36.4656 146.268 35.8264C144.69 35.1653 143.441 34.2066 142.521 32.9504C141.622 31.6722 141.173 30.0964 141.173 28.2231C141.173 26.3499 141.622 24.7741 142.521 23.4959C143.441 22.2176 144.69 21.2479 146.268 20.5868C147.867 19.9256 149.675 19.595 151.691 19.595C153.619 19.595 155.274 19.8705 156.654 20.4215C158.035 20.9504 159.119 21.7218 159.908 22.7355C160.719 23.7493 161.19 24.9725 161.322 26.405H157.41C157.038 25.303 156.347 24.4435 155.34 23.8264C154.332 23.2094 153.115 22.9008 151.691 22.9008C150.552 22.9008 149.511 23.0992 148.569 23.4959C147.648 23.8926 146.903 24.4876 146.334 25.281C145.786 26.0523 145.512 27.0331 145.512 28.2231C145.512 29.3912 145.786 30.3719 146.334 31.1653C146.881 31.9366 147.626 32.5207 148.569 32.9174C149.511 33.292 150.552 33.4793 151.691 33.4793C153.225 33.4793 154.474 33.1708 155.438 32.5537C156.424 31.9366 157.093 31.0551 157.443 29.9091H161.354Z" fill="white"/>
<path d="M163.016 19.9587H167.552L174.618 35.7273L170.937 36.3884L163.016 19.9587ZM183 19.9587L171.693 43H167.256L172.088 33.9421L178.431 19.9587H183Z" fill="white"/>
<circle cx="26" cy="26" r="26" fill="#DCFD68"/>
<g clip-path="url(#clip0_404_2360)">
<path d="M31.7403 32.5272C31.7669 32.4473 31.7803 32.3674 31.7936 32.3008C31.9801 31.5415 32.0733 30.7556 32.0733 29.9696C32.0733 29.8231 32.0733 29.6633 32.0733 29.5167C32.0733 29.3969 32.06 29.2903 32.0467 29.1704C31.6604 29.7166 31.2208 30.2361 30.7412 30.7156C29.4758 31.9811 27.9972 32.9135 26.4254 33.5129C26.3454 33.5396 26.2522 33.5662 26.1723 33.6062C25.5062 33.846 24.8269 34.0191 24.1342 34.139C23.4415 34.2589 22.7489 34.3122 22.0562 34.3122C21.8031 34.3122 21.55 34.3122 21.2969 34.2855C21.1637 34.2855 21.0172 34.2589 20.884 34.2589C20.2313 34.1923 19.5652 34.0724 18.9258 33.9126H18.9125C16.8878 33.3797 14.9563 32.3141 13.3711 30.7156C12.8783 30.2227 12.452 29.7166 12.0657 29.1704C12.0391 29.4368 12.0391 29.7032 12.0391 29.9696C12.0391 32.4473 12.9449 34.9249 14.7698 36.8564C14.8364 36.923 14.903 37.003 14.9696 37.0696C15.0362 37.1362 15.1161 37.2028 15.1827 37.2694C17.1142 39.0943 19.5785 40.0001 22.0695 40.0001C23.2817 40.0001 24.4939 39.787 25.6394 39.3474C26.9182 38.8545 28.1304 38.0952 29.1694 37.0562C30.4748 35.7508 31.3407 34.1923 31.7803 32.5272H31.7403Z" fill="#0C0C1C"/>
<path d="M20.2728 19.4729C20.2728 19.4729 20.2462 19.6061 20.2329 19.6727C20.073 20.3387 19.9798 21.0314 19.9531 21.7241C19.9531 21.8306 19.9531 21.9372 19.9531 22.0438C19.9531 22.1903 19.9531 22.3501 19.9531 22.4967C19.9531 22.6032 19.9664 22.7231 19.9798 22.8297C20.3661 22.2835 20.8056 21.7774 21.2852 21.2845C22.5507 20.019 24.0292 19.0866 25.6011 18.4872C25.681 18.4605 25.7476 18.4339 25.8275 18.4072C25.8542 18.4072 25.8675 18.3939 25.8808 18.3806L25.9474 18.3539C25.9474 18.3539 25.9874 18.3406 26.014 18.3273H26.0407C26.0407 18.3273 26.1206 18.3007 26.1605 18.274C26.2138 18.2607 26.2538 18.2474 26.3071 18.2341H26.3604C26.3604 18.2341 26.4003 18.2074 26.4136 18.2074H26.4403C26.4403 18.2074 26.4536 18.2074 26.4669 18.1941H26.4936C26.5868 18.1541 26.6934 18.1275 26.7866 18.1009C26.8665 18.0742 26.9465 18.0609 27.0264 18.0476C27.053 18.0476 27.0663 18.0476 27.0797 18.0343C27.093 18.0343 27.1196 18.0343 27.133 18.0209C27.1729 18.0209 27.2129 18.0076 27.2528 17.9943C27.3328 17.981 27.4127 17.9543 27.4926 17.941C27.5725 17.9277 27.6525 17.9144 27.7324 17.901C27.7723 17.901 27.799 17.8877 27.8389 17.8744H27.8656C27.8656 17.8744 27.9322 17.8611 27.9722 17.8478C28.0521 17.8344 28.132 17.8211 28.2119 17.8078C28.3718 17.7812 28.5316 17.7678 28.6915 17.7545C28.9312 17.7279 29.171 17.7146 29.4108 17.7012C29.5973 17.7012 29.7838 17.7012 29.9703 17.7012C30.2367 17.7012 30.5031 17.7012 30.7562 17.7279C31.5421 17.7812 32.3413 17.901 33.1006 18.1142H33.1139C35.1387 18.6603 37.0568 19.7127 38.6553 21.3111C39.1482 21.7907 39.5744 22.3102 39.9607 22.8563C39.9874 22.5899 39.9874 22.3235 39.9874 22.0571C39.9874 19.5794 39.0683 17.1151 37.2566 15.1836C37.19 15.117 37.1234 15.0371 37.0568 14.9705C36.9902 14.9039 36.9236 14.8373 36.8437 14.7707C34.9255 12.9191 32.4745 12 30.0102 12C28.7847 12 27.5592 12.2131 26.4003 12.6527C25.1082 13.1456 23.9094 13.9049 22.8703 14.9439C21.5649 16.2493 20.6991 17.8078 20.2595 19.4729H20.2728Z" fill="#0C0C1C"/>
<path d="M14.9439 29.1303C16.2493 30.4357 17.8078 31.3016 19.4729 31.7412C20.3121 31.9676 21.1779 32.0742 22.0304 32.0742C22.2969 32.0742 22.5633 32.0742 22.8164 32.0475C22.2702 31.6612 21.764 31.2217 21.2712 30.7421C20.0057 29.4767 19.0733 27.9981 18.4738 26.4262C17.941 25.0276 17.6746 23.5357 17.6746 22.0571C17.6746 21.0047 17.8078 19.9391 18.0742 18.9134C18.607 16.8753 19.6727 14.9572 21.2578 13.3587C21.7374 12.8791 22.2436 12.4529 22.7631 12.0799C22.7631 12.0799 22.7897 12.0666 22.803 12.0533C22.5366 12.0266 22.2702 12.0266 22.0038 12.0266C19.5262 12.0266 17.0485 12.9324 15.117 14.7573C15.0504 14.8239 14.9705 14.8906 14.9039 14.9572C14.8373 15.0238 14.7707 15.0904 14.7041 15.1703C12.9058 17.0751 12 19.5528 12 22.0304C12 23.2426 12.2131 24.4548 12.6527 25.6137C13.1456 26.8925 13.9049 28.1046 14.9439 29.1436V29.1303Z" fill="#0C0C1C"/>
<path d="M37.071 22.883C35.7656 21.5775 34.2071 20.7117 32.542 20.2721C31.9159 20.0989 31.2765 20.0057 30.6238 19.9524C30.4107 19.9391 30.1976 19.9258 29.9711 19.9258C29.8246 19.9258 29.6647 19.9258 29.5182 19.9258C29.3983 19.9258 29.2918 19.9391 29.1719 19.9524C29.718 20.3387 30.2375 20.7783 30.7171 21.2712C31.3431 21.8972 31.9026 22.5899 32.3688 23.3092C32.8351 24.0285 33.2214 24.8011 33.5144 25.5871C34.0472 26.999 34.3136 28.4776 34.3136 29.9562C34.3136 30.3558 34.287 30.7421 34.2604 31.1418C34.2337 31.4082 34.2071 31.6613 34.1538 31.9277C34.0872 32.3273 34.0073 32.7136 33.9007 33.0999C33.3679 35.138 32.3022 37.0695 30.7171 38.6546C30.2375 39.1342 29.718 39.5737 29.1719 39.96C29.4383 39.9867 29.7047 39.9867 29.9711 39.9867C32.4488 39.9867 34.9131 39.0809 36.8446 37.2559C36.9112 37.1893 36.9778 37.1227 37.0577 37.0561C37.1376 36.9895 37.1909 36.9229 37.2575 36.843C39.0824 34.9115 39.9882 32.4472 39.9882 29.9695C39.9882 28.7574 39.7751 27.5452 39.3355 26.3996C38.8427 25.1075 38.0834 23.9087 37.0444 22.8696L37.071 22.883Z" fill="#0C0C1C"/>
</g>
<defs>
<clipPath id="clip0_404_2360">
<rect width="28" height="28" fill="white" transform="translate(12 12)"/>
</clipPath>
</defs>
</svg>
